<svg t="1723715417866" class="icon" viewBox="0 0 1024 1024" version="1.1" xmlns="http://www.w3.org/2000/svg" p-id="1460" width="16" height="16"><path d="M912.315164 113.607111C796.546276-4.721778 623.490276-34.019556 496.912498 41.813333a84.992 84.992 0 0 0-83.399111 23.438223l-46.478223 48.355555c-30.606222 31.630222-32.768 81.578667-5.745777 117.361778a353.052444 353.052444 0 0 0-3.697778 138.638222L25.132942 775.736889a90.624 90.624 0 0 0 0.796445 125.269333l94.606222 96.711111c16.497778 16.952889 38.4 26.282667 61.667555 26.282667l0.341334-0.056889a84.536889 84.536889 0 0 0 59.847111-25.031111l424.391111-313.173333c45.340444 7.907556 91.420444 6.371556 134.485333-4.551111 15.36 12.458667 33.735111 18.375111 54.158223 19.057777 23.210667-0.056889 44.942222-9.386667 61.098666-26.282666l46.535111-48.355556c21.788444-22.584889 29.752889-55.182222 21.617778-85.447111 72.704-130.616889 43.008-308.394667-72.419555-426.552889z m-49.322666 459.377778c-2.275556 2.389333-6.087111 3.982222-8.590222 3.754667a12.629333 12.629333 0 0 1-8.931556-3.925334l-378.140444-386.844444a14.336 14.336 0 0 1-0.284445-19.740445 11.946667 11.946667 0 0 1 8.533333-3.754666c3.299556 0 6.542222 1.365333 8.931556 3.925333l378.311111 386.844444a14.392889 14.392889 0 0 1 0.170667 19.740445z m-314.88 69.632l-331.377778 227.157333a467.968 467.968 0 0 0-13.596444 9.500445c-10.126222 7.168-25.6 18.488889-30.492445 17.294222l-47.559111-48.355556c-0.341333-4.380444 7.964444-17.635556 13.539556-26.510222a397.653333 397.653333 0 0 0 12.117333-20.252444L399.177387 489.244444c17.351111 32.028444 39.253333 61.44 65.137777 87.950223 25.315556 25.941333 53.475556 47.843556 83.797334 65.422222z m-8.021334-142.392889C494.75072 453.802667 466.647609 394.069333 460.617387 333.653333l241.493333 247.011556c-58.424889-5.688889-116.622222-34.019556-162.019556-80.440889z m368.184889-55.011556l-318.862222-326.144c80.327111-26.225778 178.119111 0.967111 247.068445 71.623112 69.063111 70.542222 96.312889 171.235556 71.793777 254.520888z"  p-id="1461"></path></svg>